<?xml version="1.0" encoding="UTF-8"?>
<svg id="_Слой_1" data-name="Слой 1" xmlns="http://www.w3.org/2000/svg" viewBox="0 0 149.3 36.09">
  <defs>
    <style>
      .cls-1 {
        fill: #e2312a;
      }
    </style>
  </defs>
  <ellipse class="cls-1" cx="3.59" cy="9.93" rx="3.59" ry="3.54"/>
  <path class="cls-1" d="M147.6,5.94c-1.13-1.86-2.7-3.32-4.7-4.36-2-1.05-4.26-1.57-6.77-1.57s-4.77.52-6.77,1.57c-1.1.58-2.06,1.28-2.9,2.1v17.13c.84.82,1.8,1.53,2.9,2.1,2,1.05,4.26,1.57,6.77,1.57s4.77-.52,6.77-1.57c2-1.05,3.57-2.5,4.7-4.36,1.13-1.86,1.7-3.96,1.7-6.3s-.57-4.44-1.7-6.3ZM140.66,15.33c-.47.88-1.1,1.56-1.88,2.04-.79.48-1.67.72-2.65.72s-1.86-.24-2.65-.72c-.79-.48-1.42-1.16-1.88-2.04-.47-.88-.7-1.91-.7-3.09s.23-2.21.7-3.09c.47-.88,1.1-1.56,1.88-2.04.79-.48,1.67-.72,2.65-.72s1.86.24,2.65.72c.79.48,1.42,1.16,1.88,2.04.47.88.7,1.91.7,3.09s-.23,2.21-.7,3.09Z"/>
  <path class="cls-1" d="M31.86,17.24c-.99-.05-1.87-1.04-1.87-1.96V1.2H12.89c-2.2,0-4,1.88-4.08,4.25l.07,3.95c-.05,1.57-.22,3.11-.65,4.12-.5,1.22-1.68,2.07-3.05,2.07-.21,0-.42-.02-.62-.06v8.84l28.32.07v-7.24l-1,.02ZM21.61,17.22h-6.87c.5-.68,1.42-1.82,1.59-2.85.17-1.03.28-2.45.33-4.23l.04-1.45h4.91v8.53Z"/>
  <path class="cls-1" d="M53.28,5.94c-1.13-1.86-2.7-3.32-4.7-4.36C46.58.52,44.32,0,41.81,0s-4.77.52-6.77,1.57c-1.68.88-3.06,2.05-4.13,3.51v9.77c0,.92.69,1.66,1.54,1.66h1.34v5.65c.4.27.81.52,1.25.75,2,1.05,4.26,1.57,6.77,1.57s4.77-.52,6.77-1.57c2-1.05,3.57-2.5,4.7-4.36,1.13-1.86,1.7-3.96,1.7-6.3s-.57-4.44-1.7-6.3ZM46.34,15.33c-.47.88-1.1,1.56-1.88,2.04-.79.48-1.67.72-2.65.72s-1.86-.24-2.65-.72c-.79-.48-1.42-1.16-1.88-2.04-.47-.88-.7-1.91-.7-3.09s.23-2.21.7-3.09c.47-.88,1.1-1.56,1.88-2.04.79-.48,1.67-.72,2.65-.72s1.86.24,2.65.72c.79.48,1.42,1.16,1.88,2.04.47.88.7,1.91.7,3.09s-.23,2.21-.7,3.09Z"/>
  <path class="cls-1" d="M81.79.54h-6.47l-7.41,12.48L60.31.54h-6.47v4.88c.12.17.24.35.35.53,1.13,1.86,1.7,3.96,1.7,6.3s-.57,4.44-1.7,6.3c-.11.18-.23.35-.35.53v4.88h7.17v-10.3l6.84,8.19,6.77-8.56.07,10.67h7.17l-.07-23.41Z"/>
  <polygon class="cls-1" points="96.2 .54 88.16 12.71 88.16 .54 82.62 .54 82.69 23.95 87.86 23.95 95.86 11.81 95.86 23.95 103.6 23.95 103.6 .54 96.2 .54"/>
  <polygon class="cls-1" points="117.8 .54 117.8 8.83 110.53 8.83 110.53 .54 104.43 .54 104.43 23.95 110.53 23.95 110.53 15.32 117.8 15.32 117.8 23.95 125.67 23.95 125.67 .54 117.8 .54"/>
  <g>
    <path class="cls-1" d="M22.14,30.08c.73,0,1.3.14,1.71.41.41.27.61.66.61,1.18,0,.62-.25,1.08-.74,1.38-.5.3-1.21.45-2.15.45-.2,0-.45-.02-.75-.05v2.56h-.43v-5.92h1.76ZM24.01,31.69c0-.44-.18-.76-.53-.96-.36-.19-.86-.29-1.5-.29h-1.16v2.66c.33.03.58.04.75.04.86,0,1.48-.12,1.87-.37.39-.25.58-.61.58-1.08Z"/>
    <path class="cls-1" d="M26.81,30.08h3.73v.35h-3.3v2.36h3.02v.35h-3.02v2.5h3.49v.35h-3.92v-5.92Z"/>
    <path class="cls-1" d="M37.71,36h-.59l-3.49-2.93h0v2.93h-.43v-5.92h.43v2.95h0l3.31-2.95h.52l-3.28,2.96,3.53,2.96Z"/>
    <path class="cls-1" d="M39.11,36.07v-.38h.07c.3,0,.59-.13.88-.4.29-.27.59-.82.89-1.64.31-.83.59-2.01.84-3.56h2.78v5.92h-.43v-5.57h-1.99c-.25,1.49-.54,2.65-.86,3.48-.32.83-.64,1.4-.97,1.7-.33.3-.69.45-1.06.45h-.16Z"/>
    <path class="cls-1" d="M46.63,36l2.68-5.92h.42l2.69,5.92h-.47l-.94-2.1h-2.97l-.93,2.1h-.47ZM50.84,33.55l-.25-.57c-.55-1.23-.9-2.04-1.05-2.43h-.02c-.13.34-.35.84-.66,1.5-.09.2-.32.7-.68,1.5h2.66Z"/>
    <path class="cls-1" d="M55.16,30.08l1.97,4.14.59,1.32h.02l2.53-5.46h.67v5.92h-.42v-2.74c0-.89.02-1.83.07-2.82h-.04c-.49.98-.79,1.6-.9,1.85l-1.69,3.71h-.42l-1.74-3.71c-.08-.18-.39-.8-.91-1.85h-.03c.05,1.26.07,2.2.07,2.82v2.74h-.43v-5.92h.67Z"/>
    <path class="cls-1" d="M63.69,30.08h.43v2.69h3.8v-2.69h.43v5.92h-.43v-2.87h-3.8v2.87h-.43v-5.92Z"/>
    <path class="cls-1" d="M70.42,36l2.68-5.92h.42l2.69,5.92h-.47l-.94-2.1h-2.97l-.93,2.1h-.47ZM74.63,33.55l-.25-.57c-.55-1.23-.9-2.04-1.05-2.43h-.02c-.13.34-.35.84-.66,1.5-.09.2-.32.7-.68,1.5h2.66Z"/>
    <path class="cls-1" d="M79.5,33.46v-.02c-.49-.11-.85-.3-1.09-.59-.24-.29-.36-.63-.36-1.01,0-.56.2-.99.59-1.29.39-.3.94-.46,1.66-.46h2.02v5.92h-.43v-2.53h-1.9l-1.62,2.53h-.49l1.63-2.55ZM81.89,33.12v-2.68h-1.54c-.63,0-1.09.12-1.4.36-.3.24-.45.57-.45,1s.13.74.4.97.71.35,1.33.35h1.65Z"/>
    <path class="cls-1" d="M88.03,36v-5.92h3.92v.39l-3.49-.04v5.57h-.43Z"/>
    <path class="cls-1" d="M95.75,30.08c.73,0,1.3.14,1.71.41.41.27.61.66.61,1.18,0,.62-.25,1.08-.74,1.38-.5.3-1.21.45-2.15.45-.2,0-.45-.02-.75-.05v2.56h-.43v-5.92h1.76ZM97.63,31.69c0-.44-.18-.76-.53-.96-.36-.19-.86-.29-1.5-.29h-1.16v2.66c.33.03.58.04.75.04.86,0,1.48-.12,1.87-.37.39-.25.58-.61.58-1.08Z"/>
    <path class="cls-1" d="M100.28,35.73c.08.01.21.02.38.02.37,0,.67-.1.9-.29.23-.19.5-.57.79-1.12l-2.49-4.25h.45l2.23,3.84h.03l1.86-3.84h.44l-2.12,4.29c-.32.66-.64,1.12-.95,1.36-.31.24-.7.36-1.18.36l-.34-.02v-.35Z"/>
    <path class="cls-1" d="M107.08,36v-5.92h4.74v5.92h-.43v-5.57h-3.88v5.57h-.43Z"/>
    <path class="cls-1" d="M114.56,36v-5.92h4.74v5.92h-.43v-5.57h-3.88v5.57h-.43Z"/>
    <path class="cls-1" d="M121.37,36l2.68-5.92h.42l2.69,5.92h-.47l-.94-2.1h-2.97l-.93,2.1h-.47ZM125.58,33.55l-.25-.57c-.55-1.23-.9-2.04-1.05-2.43h-.02c-.13.34-.35.84-.66,1.5-.09.2-.32.7-.68,1.5h2.66Z"/>
  </g>
</svg>